<svg width="24" height="25" viewBox="0 0 24 25" fill="none" xmlns="http://www.w3.org/2000/svg">
<path d="M8.46997 14.03C8.17697 13.737 8.17697 13.262 8.46997 12.969C8.76297 12.676 9.23801 12.676 9.53101 12.969L11.251 14.689V3.5C11.251 3.086 11.587 2.75 12.001 2.75C12.415 2.75 12.751 3.086 12.751 3.5V14.689L14.4709 12.969C14.7639 12.676 15.239 12.676 15.532 12.969C15.825 13.262 15.825 13.737 15.532 14.03L12.532 17.03C12.463 17.099 12.3801 17.154 12.2881 17.192C12.1961 17.23 12.099 17.25 12.001 17.25C11.903 17.25 11.8061 17.23 11.7141 17.192C11.6221 17.154 11.539 17.099 11.47 17.03L8.46997 14.03ZM18 9.75C17.586 9.75 17.25 10.086 17.25 10.5C17.25 10.914 17.586 11.25 18 11.25C19.577 11.25 20.25 11.923 20.25 13.5V18.5C20.25 20.077 19.577 20.75 18 20.75H6C4.423 20.75 3.75 20.077 3.75 18.5V13.5C3.75 11.923 4.423 11.25 6 11.25C6.414 11.25 6.75 10.914 6.75 10.5C6.75 10.086 6.414 9.75 6 9.75C3.582 9.75 2.25 11.082 2.25 13.5V18.5C2.25 20.918 3.582 22.25 6 22.25H18C20.418 22.25 21.75 20.918 21.75 18.5V13.5C21.75 11.082 20.418 9.75 18 9.75Z" fill="#FF6B00"/>
</svg>
