<svg width="24" height="25" viewBox="0 0 24 25" fill="none" xmlns="http://www.w3.org/2000/svg">
<path d="M21.8906 4.0625H2.10938C0.943922 4.0625 0 5.01228 0 6.17188V18.8281C0 19.9946 0.950859 20.9375 2.10938 20.9375H21.8906C23.0463 20.9375 24 19.9986 24 18.8281V6.17188C24 5.01434 23.0598 4.0625 21.8906 4.0625ZM21.5952 5.46875L13.4916 13.5297C13.0931 13.9281 12.5634 14.1475 12 14.1475C11.4366 14.1475 10.9069 13.9281 10.5071 13.5284L2.40478 5.46875H21.5952ZM1.40625 18.5419V6.45898L7.48303 12.5037L1.40625 18.5419ZM2.40567 19.5312L8.48006 13.4955L9.51408 14.5241C10.1781 15.1881 11.061 15.5538 12 15.5538C12.939 15.5538 13.8219 15.1881 14.4846 14.5254L15.5199 13.4955L21.5943 19.5312H2.40567ZM22.5938 18.5419L16.517 12.5037L22.5938 6.45898V18.5419Z" fill="#FF6B00"/>
</svg>
