<svg width="99" height="64" viewBox="0 0 99 64" fill="none" xmlns="http://www.w3.org/2000/svg">
<path d="M2.984 27.392C2.57333 27.392 2.26533 27.3267 2.06 27.196C1.85467 27.0653 1.752 26.8693 1.752 26.608V1.52C1.752 1.25867 1.85467 1.072 2.06 0.959998C2.284 0.829332 2.60133 0.763999 3.012 0.763999H7.884C9.91867 0.763999 11.5893 0.969332 12.896 1.38C14.2213 1.79067 15.2013 2.46266 15.836 3.396C16.4707 4.31067 16.788 5.53333 16.788 7.064C16.788 7.82933 16.6853 8.55733 16.48 9.248C16.2747 9.92 15.976 10.5453 15.584 11.124C15.192 11.7027 14.7067 12.2253 14.128 12.692C13.568 13.14 12.924 13.5413 12.196 13.896C11.468 14.232 10.6653 14.512 9.788 14.736C8.91067 14.9413 7.95867 15.0813 6.932 15.156C7.95867 16.3693 9.032 17.5733 10.152 18.768C11.272 19.944 12.4387 21.092 13.652 22.212C14.8653 23.332 16.1347 24.424 17.46 25.488C17.6653 25.6373 17.796 25.8613 17.852 26.16C17.908 26.44 17.7587 26.7573 17.404 27.112C17.1613 27.336 16.9093 27.448 16.648 27.448C16.3867 27.4667 16.116 27.364 15.836 27.14C14.3987 25.964 12.9987 24.7413 11.636 23.472C10.292 22.184 8.99467 20.868 7.744 19.524C6.512 18.18 5.336 16.8547 4.216 15.548V26.608C4.216 26.8693 4.11333 27.0653 3.908 27.196C3.70267 27.3267 3.39467 27.392 2.984 27.392ZM4.216 13.196C5.14933 13.196 6.008 13.1587 6.792 13.084C7.59467 12.9907 8.332 12.86 9.004 12.692C9.69467 12.524 10.3107 12.328 10.852 12.104C11.412 11.8613 11.9067 11.572 12.336 11.236C12.7653 10.9 13.12 10.5267 13.4 10.116C13.6987 9.68667 13.9133 9.22 14.044 8.716C14.1933 8.212 14.268 7.66133 14.268 7.064C14.268 6.07467 14.0533 5.28133 13.624 4.684C13.1947 4.08667 12.532 3.65733 11.636 3.396C10.74 3.13467 9.61067 3.004 8.248 3.004H4.216V13.196ZM25.7318 27.476C24.6678 27.476 23.7251 27.224 22.9038 26.72C22.0825 26.1973 21.4385 25.4133 20.9718 24.368C20.5051 23.3227 20.2718 22.0067 20.2718 20.42C20.2718 19.4493 20.3651 18.5533 20.5518 17.732C20.7385 16.9107 20.9998 16.1733 21.3358 15.52C21.6905 14.8667 22.1198 14.316 22.6238 13.868C23.1465 13.42 23.7345 13.0747 24.3878 12.832C25.0411 12.5893 25.7598 12.468 26.5438 12.468C27.3091 12.468 28.0931 12.6173 28.8958 12.916C29.6985 13.2147 30.4171 13.6067 31.0518 14.092V16.192C30.3051 15.5947 29.5865 15.1933 28.8958 14.988C28.2238 14.7827 27.5238 14.68 26.7958 14.68C26.3105 14.68 25.8531 14.7547 25.4238 14.904C25.0131 15.0533 24.6398 15.2773 24.3038 15.576C23.9865 15.8747 23.7065 16.248 23.4638 16.696C23.2398 17.144 23.0625 17.6667 22.9318 18.264C22.8198 18.8613 22.7638 19.5427 22.7638 20.308C22.7638 21.3347 22.8851 22.2213 23.1278 22.968C23.3705 23.696 23.7345 24.256 24.2198 24.648C24.7238 25.04 25.3491 25.236 26.0958 25.236C26.7678 25.236 27.3931 25.0867 27.9718 24.788C28.5691 24.4707 29.1105 23.976 29.5958 23.304C30.0998 22.6133 30.5291 21.708 30.8838 20.588L31.3318 22.296C30.9025 23.7333 30.3705 24.8253 29.7358 25.572C29.1198 26.3187 28.4571 26.8227 27.7478 27.084C27.0571 27.3453 26.3851 27.476 25.7318 27.476ZM33.8518 27.476C33.2171 27.476 32.6665 27.3827 32.1998 27.196C31.7331 27.028 31.3505 26.7667 31.0518 26.412C30.7531 26.0387 30.5291 25.5813 30.3798 25.04C30.2491 24.48 30.1838 23.8267 30.1838 23.08V13.392C30.1838 13.112 30.2865 12.9067 30.4918 12.776C30.6971 12.6453 31.0051 12.58 31.4158 12.58C31.8078 12.58 32.0971 12.6453 32.2838 12.776C32.4891 12.888 32.5918 13.0747 32.5918 13.336V23.08C32.5918 23.92 32.7131 24.5173 32.9558 24.872C33.2171 25.208 33.6931 25.376 34.3838 25.376C34.5518 25.376 34.6731 25.488 34.7478 25.712C34.8411 25.9173 34.8691 26.16 34.8318 26.44C34.8131 26.7013 34.7198 26.9347 34.5518 27.14C34.4025 27.364 34.1691 27.476 33.8518 27.476ZM33.8531 27.476C33.5918 27.476 33.4051 27.364 33.2931 27.14C33.1625 26.9347 33.1158 26.7013 33.1531 26.44C33.1718 26.16 33.2838 25.9173 33.4891 25.712C33.6945 25.488 33.9931 25.376 34.3851 25.376C35.0011 25.376 35.5705 25.2733 36.0931 25.068C36.6158 24.8627 37.0918 24.5733 37.5211 24.2C37.9505 23.8267 38.3238 23.388 38.6411 22.884C38.9771 22.38 39.2571 21.8387 39.4811 21.26C39.5931 20.98 39.7518 20.8587 39.9571 20.896C40.1811 20.9147 40.3678 21.0173 40.5171 21.204C40.6851 21.3907 40.7411 21.5867 40.6851 21.792C40.4051 22.688 40.0411 23.4907 39.5931 24.2C39.1638 24.8907 38.6598 25.488 38.0811 25.992C37.5211 26.4773 36.8865 26.8413 36.1771 27.084C35.4678 27.3453 34.6931 27.476 33.8531 27.476ZM37.9971 39.796C37.1385 39.796 36.4198 39.5907 35.8411 39.18C35.2438 38.788 34.8051 38.3213 34.5251 37.78C34.3945 37.5 34.3851 37.248 34.4971 37.024C34.6091 36.8187 34.8051 36.6413 35.0851 36.492C35.4211 36.2867 35.7011 36.2213 35.9251 36.296C36.1305 36.3707 36.3265 36.5293 36.5131 36.772C36.7745 37.0707 37.0078 37.2947 37.2131 37.444C37.4185 37.612 37.6798 37.696 37.9971 37.696C38.4451 37.696 38.7438 37.528 38.8931 37.192C39.0611 36.8747 39.1451 36.436 39.1451 35.876V13.308C39.1451 13.0653 39.2385 12.888 39.4251 12.776C39.6305 12.6453 39.9291 12.58 40.3211 12.58C40.7318 12.58 41.0398 12.6453 41.2451 12.776C41.4505 12.888 41.5531 13.0653 41.5531 13.308V35.68C41.5531 36.7253 41.3851 37.5467 41.0491 38.144C40.7131 38.7413 40.2745 39.1613 39.7331 39.404C39.2105 39.6653 38.6318 39.796 37.9971 39.796ZM40.3211 8.268C39.7985 8.268 39.4065 8.128 39.1451 7.848C38.8838 7.54933 38.7531 7.11067 38.7531 6.532C38.7531 5.93467 38.8838 5.48667 39.1451 5.188C39.4065 4.88933 39.7985 4.74 40.3211 4.74C40.8438 4.74 41.2265 4.88933 41.4691 5.188C41.7305 5.48667 41.8611 5.93467 41.8611 6.532C41.8611 7.11067 41.7305 7.54933 41.4691 7.848C41.2265 8.128 40.8438 8.268 40.3211 8.268ZM51.4975 27.476C50.4335 27.476 49.4908 27.224 48.6695 26.72C47.8482 26.1973 47.2042 25.4133 46.7375 24.368C46.2708 23.3227 46.0375 22.0067 46.0375 20.42C46.0375 19.4493 46.1308 18.5533 46.3175 17.732C46.5042 16.9107 46.7655 16.1733 47.1015 15.52C47.4562 14.8667 47.8855 14.316 48.3895 13.868C48.9122 13.42 49.5002 13.0747 50.1535 12.832C50.8068 12.5893 51.5255 12.468 52.3095 12.468C53.0748 12.468 53.8588 12.6173 54.6615 12.916C55.4642 13.2147 56.1828 13.6067 56.8175 14.092V16.192C56.0708 15.5947 55.3522 15.1933 54.6615 14.988C53.9895 14.7827 53.2895 14.68 52.5615 14.68C52.0762 14.68 51.6188 14.7547 51.1895 14.904C50.7788 15.0533 50.4055 15.2773 50.0695 15.576C49.7522 15.8747 49.4722 16.248 49.2295 16.696C49.0055 17.144 48.8282 17.6667 48.6975 18.264C48.5855 18.8613 48.5295 19.5427 48.5295 20.308C48.5295 21.3347 48.6508 22.2213 48.8935 22.968C49.1362 23.696 49.5002 24.256 49.9855 24.648C50.4895 25.04 51.1148 25.236 51.8615 25.236C52.5335 25.236 53.1588 25.0867 53.7375 24.788C54.3348 24.4707 54.8762 23.976 55.3615 23.304C55.8655 22.6133 56.2948 21.708 56.6495 20.588L57.0975 22.296C56.6682 23.7333 56.1362 24.8253 55.5015 25.572C54.8855 26.3187 54.2228 26.8227 53.5135 27.084C52.8228 27.3453 52.1508 27.476 51.4975 27.476ZM59.6175 27.476C58.9828 27.476 58.4322 27.3827 57.9655 27.196C57.4988 27.028 57.1162 26.7667 56.8175 26.412C56.5188 26.0387 56.2948 25.5813 56.1455 25.04C56.0148 24.48 55.9495 23.8267 55.9495 23.08V13.392C55.9495 13.112 56.0522 12.9067 56.2575 12.776C56.4628 12.6453 56.7708 12.58 57.1815 12.58C57.5735 12.58 57.8628 12.6453 58.0495 12.776C58.2548 12.888 58.3575 13.0747 58.3575 13.336V23.08C58.3575 23.92 58.4788 24.5173 58.7215 24.872C58.9828 25.208 59.4588 25.376 60.1495 25.376C60.3175 25.376 60.4388 25.488 60.5135 25.712C60.6068 25.9173 60.6348 26.16 60.5975 26.44C60.5788 26.7013 60.4855 26.9347 60.3175 27.14C60.1682 27.364 59.9348 27.476 59.6175 27.476ZM59.6109 27.476C59.3496 27.476 59.1629 27.364 59.0509 27.14C58.9203 26.9347 58.8736 26.7013 58.9109 26.44C58.9296 26.16 59.0416 25.9173 59.2469 25.712C59.4523 25.488 59.7509 25.376 60.1429 25.376C60.7029 25.376 61.2069 25.3013 61.6549 25.152C62.0843 25.0027 62.4576 24.7787 62.7749 24.48C63.0923 24.1813 63.3443 23.808 63.5309 23.36C63.7363 22.912 63.8763 22.3893 63.9509 21.792C63.9883 21.512 64.1283 21.3347 64.3709 21.26C64.6136 21.1667 64.8469 21.1667 65.0709 21.26C65.3136 21.3347 65.4163 21.512 65.3789 21.792C65.3043 22.7813 65.1083 23.64 64.7909 24.368C64.4736 25.0773 64.0629 25.6653 63.5589 26.132C63.0549 26.58 62.4669 26.916 61.7949 27.14C61.1416 27.364 60.4136 27.476 59.6109 27.476ZM69.2989 27.476C68.2349 27.476 67.2923 27.224 66.4709 26.72C65.6496 26.1973 65.0056 25.4133 64.5389 24.368C64.0723 23.3227 63.8389 22.0067 63.8389 20.42C63.8389 19.4493 63.9229 18.5533 64.0909 17.732C64.2776 16.9107 64.5483 16.1733 64.9029 15.52C65.2576 14.8667 65.6869 14.316 66.1909 13.868C66.6949 13.42 67.2736 13.0747 67.9269 12.832C68.5803 12.5893 69.2989 12.468 70.0829 12.468C70.6803 12.468 71.2963 12.5707 71.9309 12.776C72.5656 12.9627 73.1629 13.2147 73.7229 13.532V13.392C73.7229 13.112 73.8256 12.9067 74.0309 12.776C74.2363 12.6453 74.5443 12.58 74.9549 12.58C75.3656 12.58 75.6643 12.6453 75.8509 12.776C76.0563 12.888 76.1589 13.0747 76.1589 13.336V24.312C76.1589 24.5547 76.1963 24.76 76.2709 24.928C76.3456 25.0773 76.4483 25.1893 76.5789 25.264C76.7096 25.3387 76.8589 25.376 77.0269 25.376C77.2136 25.376 77.3629 25.3573 77.4749 25.32C77.6056 25.264 77.7269 25.1893 77.8389 25.096C77.9696 25.0027 78.1189 24.8907 78.2869 24.76C78.4176 24.648 78.5669 24.62 78.7349 24.676C78.9029 24.7133 79.0709 24.8067 79.2389 24.956C79.4069 25.1427 79.5003 25.3387 79.5189 25.544C79.5376 25.7493 79.5003 25.9267 79.4069 26.076C79.2016 26.3747 78.9403 26.6267 78.6229 26.832C78.3056 27.0373 77.9603 27.196 77.5869 27.308C77.2323 27.42 76.8683 27.476 76.4949 27.476C76.0656 27.476 75.6923 27.4293 75.3749 27.336C75.0576 27.2427 74.7869 27.1027 74.5629 26.916C74.3389 26.7107 74.1616 26.468 74.0309 26.188C73.9189 25.908 73.8349 25.5907 73.7789 25.236C73.7789 25.2173 73.7696 25.18 73.7509 25.124C73.7323 25.0493 73.7229 24.9747 73.7229 24.9C73.2936 25.5907 72.8269 26.1227 72.3229 26.496C71.8376 26.8693 71.3336 27.1213 70.8109 27.252C70.2883 27.4013 69.7843 27.476 69.2989 27.476ZM66.3029 20.308C66.3029 21.3347 66.4243 22.2213 66.6669 22.968C66.9096 23.696 67.2736 24.256 67.7589 24.648C68.2629 25.04 68.8883 25.236 69.6349 25.236C70.1763 25.236 70.6896 25.1427 71.1749 24.956C71.6789 24.7693 72.1456 24.4613 72.5749 24.032C73.0043 23.6027 73.3869 23.0427 73.7229 22.352V15.576C73.1443 15.2213 72.5843 14.988 72.0429 14.876C71.5016 14.7453 70.9323 14.68 70.3349 14.68C69.8496 14.68 69.4016 14.7547 68.9909 14.904C68.5803 15.0533 68.2069 15.2773 67.8709 15.576C67.5349 15.8747 67.2456 16.248 67.0029 16.696C66.7789 17.144 66.6016 17.6667 66.4709 18.264C66.3589 18.8613 66.3029 19.5427 66.3029 20.308ZM11.3 63.532C9.676 63.5133 8.192 63.168 6.848 62.496C5.52267 61.824 4.37467 60.8813 3.404 59.668C2.452 58.4547 1.71467 57.0267 1.192 55.384C0.688 53.7227 0.436 51.8933 0.436 49.896C0.436 48.5707 0.548 47.32 0.772 46.144C1.01467 44.968 1.36 43.876 1.808 42.868C2.27467 41.8413 2.83467 40.936 3.488 40.152C4.14133 39.3493 4.888 38.6587 5.728 38.08C6.568 37.5013 7.492 37.0627 8.5 36.764C9.508 36.4653 10.5813 36.316 11.72 36.316C12.6347 36.316 13.54 36.4187 14.436 36.624C15.332 36.8293 16.1907 37.184 17.012 37.688C17.852 38.192 18.5893 38.9107 19.224 39.844C19.392 40.068 19.4387 40.264 19.364 40.432C19.2893 40.6 19.14 40.7867 18.916 40.992C18.6547 41.216 18.4307 41.3467 18.244 41.384C18.0573 41.4213 17.8707 41.3467 17.684 41.16C17.18 40.6373 16.6107 40.1893 15.976 39.816C15.36 39.4427 14.6973 39.1627 13.988 38.976C13.2787 38.7893 12.5227 38.696 11.72 38.696C10.88 38.696 10.0867 38.808 9.34 39.032C8.59333 39.256 7.89333 39.592 7.24 40.04C6.58667 40.4693 6.008 41.0013 5.504 41.636C5 42.2707 4.56133 43.008 4.188 43.848C3.81467 44.6693 3.53467 45.5933 3.348 46.62C3.16133 47.628 3.068 48.72 3.068 49.896C3.068 51.6693 3.27333 53.256 3.684 54.656C4.09467 56.056 4.67333 57.2413 5.42 58.212C6.18533 59.164 7.06267 59.892 8.052 60.396C9.06 60.9 10.1427 61.152 11.3 61.152C12.252 61.152 13.12 61.0307 13.904 60.788C14.688 60.5453 15.3693 60.1813 15.948 59.696C16.5267 59.192 17.0213 58.548 17.432 57.764C17.8427 56.9613 18.1507 56.028 18.356 54.964C18.58 53.8813 18.7013 52.64 18.72 51.24H11.972C11.692 51.24 11.4867 51.156 11.356 50.988C11.244 50.82 11.188 50.5307 11.188 50.12C11.188 49.6907 11.244 49.4013 11.356 49.252C11.4867 49.084 11.692 49 11.972 49H20.456C20.736 49 20.932 49.084 21.044 49.252C21.1747 49.4013 21.24 49.6907 21.24 50.12C21.24 52.528 20.988 54.5813 20.484 56.28C19.98 57.9787 19.2707 59.3693 18.356 60.452C17.4413 61.516 16.3773 62.3 15.164 62.804C13.9693 63.2893 12.6813 63.532 11.3 63.532ZM39.9678 63.476C39.3332 63.476 38.7825 63.3827 38.3158 63.196C37.8492 63.028 37.4665 62.7667 37.1678 62.412C36.8692 62.0387 36.6452 61.5813 36.4958 61.04C36.3652 60.48 36.2998 59.8267 36.2998 59.08V53.872C36.2998 52.8827 36.0758 52.108 35.6278 51.548C35.1985 50.988 34.4705 50.708 33.4438 50.708C33.0518 50.708 32.6505 50.764 32.2398 50.876C31.8292 50.988 31.4278 51.1653 31.0358 51.408C30.6438 51.6507 30.2798 51.9773 29.9438 52.388C29.6078 52.78 29.3092 53.2653 29.0478 53.844V62.692C29.0478 62.9347 28.9452 63.112 28.7398 63.224C28.5345 63.3547 28.2358 63.42 27.8438 63.42C27.4332 63.42 27.1252 63.3547 26.9198 63.224C26.7332 63.112 26.6398 62.9347 26.6398 62.692V37.044C26.6398 36.8013 26.7332 36.624 26.9198 36.512C27.1252 36.3813 27.4332 36.316 27.8438 36.316C28.2358 36.316 28.5345 36.3813 28.7398 36.512C28.9452 36.624 29.0478 36.8013 29.0478 37.044V51.1C29.3092 50.708 29.6078 50.3533 29.9438 50.036C30.2985 49.7 30.6718 49.42 31.0638 49.196C31.4745 48.9533 31.9038 48.776 32.3518 48.664C32.7998 48.5333 33.2758 48.468 33.7798 48.468C34.7505 48.468 35.5998 48.6453 36.3278 49C37.0745 49.3547 37.6532 49.9147 38.0638 50.68C38.4932 51.4267 38.7078 52.416 38.7078 53.648V59.08C38.7078 59.92 38.8292 60.5173 39.0718 60.872C39.3332 61.208 39.8092 61.376 40.4998 61.376C40.7612 61.376 40.9572 61.488 41.0878 61.712C41.2185 61.9173 41.2652 62.16 41.2278 62.44C41.2092 62.7013 41.0972 62.9347 40.8918 63.14C40.6865 63.364 40.3785 63.476 39.9678 63.476ZM39.9781 63.476C39.7168 63.476 39.5301 63.364 39.4181 63.14C39.2875 62.9347 39.2408 62.7013 39.2781 62.44C39.2968 62.16 39.4088 61.9173 39.6141 61.712C39.8195 61.488 40.1181 61.376 40.5101 61.376C41.0701 61.376 41.5741 61.3013 42.0221 61.152C42.4515 61.0027 42.8248 60.7787 43.1421 60.48C43.4595 60.1813 43.7115 59.808 43.8981 59.36C44.1035 58.912 44.2435 58.3893 44.3181 57.792C44.3555 57.512 44.4955 57.3347 44.7381 57.26C44.9808 57.1667 45.2141 57.1667 45.4381 57.26C45.6808 57.3347 45.7835 57.512 45.7461 57.792C45.6715 58.7813 45.4755 59.64 45.1581 60.368C44.8408 61.0773 44.4301 61.6653 43.9261 62.132C43.4221 62.58 42.8341 62.916 42.1621 63.14C41.5088 63.364 40.7808 63.476 39.9781 63.476ZM49.6381 63.476C48.5741 63.476 47.6315 63.224 46.8101 62.72C45.9888 62.1973 45.3448 61.4133 44.8781 60.368C44.4115 59.3227 44.1781 58.0067 44.1781 56.42C44.1781 55.4493 44.2715 54.5533 44.4581 53.732C44.6448 52.9107 44.9061 52.1733 45.2421 51.52C45.5968 50.8667 46.0261 50.316 46.5301 49.868C47.0528 49.42 47.6408 49.0747 48.2941 48.832C48.9475 48.5893 49.6661 48.468 50.4501 48.468C51.2155 48.468 51.9995 48.6173 52.8021 48.916C53.6048 49.2147 54.3235 49.6067 54.9581 50.092V52.192C54.2115 51.5947 53.4928 51.1933 52.8021 50.988C52.1301 50.7827 51.4301 50.68 50.7021 50.68C50.2168 50.68 49.7595 50.7547 49.3301 50.904C48.9195 51.0533 48.5461 51.2773 48.2101 51.576C47.8928 51.8747 47.6128 52.248 47.3701 52.696C47.1461 53.144 46.9688 53.6667 46.8381 54.264C46.7261 54.8613 46.6701 55.5427 46.6701 56.308C46.6701 57.3347 46.7915 58.2213 47.0341 58.968C47.2768 59.696 47.6408 60.256 48.1261 60.648C48.6301 61.04 49.2555 61.236 50.0021 61.236C50.6741 61.236 51.2995 61.0867 51.8781 60.788C52.4755 60.4707 53.0168 59.976 53.5021 59.304C54.0061 58.6133 54.4355 57.708 54.7901 56.588L55.2381 58.296C54.8088 59.7333 54.2768 60.8253 53.6421 61.572C53.0261 62.3187 52.3635 62.8227 51.6541 63.084C50.9635 63.3453 50.2915 63.476 49.6381 63.476ZM57.7581 63.476C57.1235 63.476 56.5728 63.3827 56.1061 63.196C55.6395 63.028 55.2568 62.7667 54.9581 62.412C54.6595 62.0387 54.4355 61.5813 54.2861 61.04C54.1555 60.48 54.0901 59.8267 54.0901 59.08V49.392C54.0901 49.112 54.1928 48.9067 54.3981 48.776C54.6035 48.6453 54.9115 48.58 55.3221 48.58C55.7141 48.58 56.0035 48.6453 56.1901 48.776C56.3955 48.888 56.4981 49.0747 56.4981 49.336V59.08C56.4981 59.92 56.6195 60.5173 56.8621 60.872C57.1235 61.208 57.5995 61.376 58.2901 61.376C58.4581 61.376 58.5795 61.488 58.6541 61.712C58.7475 61.9173 58.7755 62.16 58.7381 62.44C58.7195 62.7013 58.6261 62.9347 58.4581 63.14C58.3088 63.364 58.0755 63.476 57.7581 63.476ZM57.7516 63.476C57.5836 63.476 57.4622 63.364 57.3876 63.14C57.3129 62.9347 57.2942 62.7013 57.3316 62.44C57.3689 62.16 57.4622 61.9173 57.6116 61.712C57.7609 61.488 57.9756 61.376 58.2556 61.376C58.7036 61.376 59.1049 61.2547 59.4596 61.012C59.7956 60.7693 60.0942 60.4053 60.3556 59.92C60.6169 59.4347 60.8409 58.8373 61.0276 58.128C61.2142 57.4187 61.3636 56.588 61.4756 55.636C61.6436 54.2547 61.8582 53.116 62.1196 52.22C62.3996 51.3053 62.7262 50.5867 63.0996 50.064C63.4729 49.5227 63.8929 49.14 64.3596 48.916C64.8262 48.692 65.3396 48.58 65.8996 48.58C66.0676 48.58 66.1889 48.692 66.2636 48.916C66.3569 49.1213 66.3942 49.364 66.3756 49.644C66.3756 49.9053 66.3289 50.148 66.2356 50.372C66.1422 50.5773 66.0116 50.68 65.8436 50.68C65.6196 50.68 65.3956 50.7453 65.1716 50.876C64.9662 50.988 64.7702 51.212 64.5836 51.548C64.3969 51.8653 64.2196 52.332 64.0516 52.948C63.9022 53.5453 63.7622 54.3293 63.6316 55.3C63.4262 56.98 63.1462 58.3613 62.7916 59.444C62.4556 60.508 62.0449 61.3387 61.5596 61.936C61.0929 62.5147 60.5422 62.916 59.9076 63.14C59.2729 63.364 58.5542 63.476 57.7516 63.476ZM65.7596 63.42C65.3676 63.42 65.0689 63.3547 64.8636 63.224C64.6769 63.112 64.5836 62.9347 64.5836 62.692V52.668C64.5836 51.884 64.4716 51.3613 64.2476 51.1C64.0236 50.82 63.6222 50.68 63.0436 50.68C62.7636 50.68 62.5582 50.5773 62.4276 50.372C62.2969 50.148 62.2316 49.9053 62.2316 49.644C62.2316 49.364 62.3062 49.1213 62.4556 48.916C62.6049 48.692 62.8196 48.58 63.0996 48.58C63.6409 48.58 64.1169 48.636 64.5276 48.748C64.9382 48.86 65.2929 49.0373 65.5916 49.28C65.9089 49.5227 66.1702 49.8213 66.3756 50.176C66.5809 50.5307 66.7302 50.9507 66.8236 51.436L66.8516 51.576C67.0569 51.0907 67.2996 50.6613 67.5796 50.288C67.8596 49.896 68.1582 49.5693 68.4756 49.308C68.7929 49.028 69.1196 48.8227 69.4556 48.692C69.8102 48.5427 70.1556 48.468 70.4916 48.468C70.8462 48.468 71.1076 48.58 71.2756 48.804C71.4622 49.028 71.5556 49.2893 71.5556 49.588C71.5556 49.8867 71.4622 50.148 71.2756 50.372C71.1076 50.596 70.8462 50.708 70.4916 50.708C70.1556 50.708 69.8102 50.8107 69.4556 51.016C69.1196 51.2027 68.7929 51.4827 68.4756 51.856C68.1769 52.2107 67.8969 52.64 67.6356 53.144C67.3929 53.6293 67.1782 54.1707 66.9916 54.768V62.692C66.9916 62.9347 66.8889 63.112 66.6836 63.224C66.4782 63.3547 66.1702 63.42 65.7596 63.42ZM72.9584 52.752C71.8571 52.752 71.0451 52.472 70.5224 51.912C69.9997 51.3333 69.7384 50.512 69.7384 49.448L70.4944 48.468C70.9237 48.468 71.2691 48.5707 71.5304 48.776C71.7731 48.9627 71.8944 49.2333 71.8944 49.588C71.8944 49.868 71.9411 50.1013 72.0344 50.288C72.1091 50.4747 72.2397 50.6147 72.4264 50.708C72.5944 50.8013 72.8091 50.848 73.0704 50.848C73.4437 50.848 73.8077 50.764 74.1624 50.596C74.5357 50.4093 74.8904 50.1573 75.2264 49.84C75.5624 49.5227 75.8704 49.1493 76.1504 48.72C76.4304 48.2907 76.6637 47.824 76.8504 47.32C76.9437 47.0773 77.1024 46.9747 77.3264 47.012C77.5504 47.0307 77.7371 47.1427 77.8864 47.348C78.0544 47.5347 78.0917 47.768 77.9984 48.048C77.7184 48.9253 77.3357 49.728 76.8504 50.456C76.3651 51.1653 75.7957 51.7253 75.1424 52.136C74.4891 52.5467 73.7611 52.752 72.9584 52.752ZM77.2704 63.42C76.8597 63.42 76.5517 63.3547 76.3464 63.224C76.1597 63.112 76.0664 62.9347 76.0664 62.692V37.044C76.0664 36.8013 76.1597 36.624 76.3464 36.512C76.5517 36.3813 76.8597 36.316 77.2704 36.316C77.6624 36.316 77.9611 36.3813 78.1664 36.512C78.3717 36.6427 78.4744 36.848 78.4744 37.128V50.792C78.9224 50.1573 79.3891 49.6813 79.8744 49.364C80.3597 49.028 80.8451 48.7947 81.3304 48.664C81.8344 48.5333 82.3197 48.468 82.7864 48.468C84.3917 48.468 85.6984 49.056 86.7064 50.232C87.7331 51.3893 88.2464 53.1627 88.2464 55.552C88.2464 56.5227 88.1531 57.4187 87.9664 58.24C87.7797 59.0613 87.5091 59.7987 87.1544 60.452C86.7997 61.0867 86.3611 61.628 85.8384 62.076C85.3157 62.524 84.7091 62.8693 84.0184 63.112C83.3464 63.3547 82.5997 63.476 81.7784 63.476C81.1624 63.476 80.5744 63.4013 80.0144 63.252C79.4731 63.1027 78.9597 62.8787 78.4744 62.58V62.692C78.4744 62.9347 78.3717 63.112 78.1664 63.224C77.9611 63.3547 77.6624 63.42 77.2704 63.42ZM78.4744 60.452C79.0344 60.7693 79.5851 61.0027 80.1264 61.152C80.6677 61.3013 81.2184 61.376 81.7784 61.376C82.2637 61.376 82.7117 61.3013 83.1224 61.152C83.5331 60.984 83.8971 60.7507 84.2144 60.452C84.5504 60.1347 84.8304 59.752 85.0544 59.304C85.2784 58.8373 85.4464 58.296 85.5584 57.68C85.6891 57.064 85.7544 56.3827 85.7544 55.636C85.7544 54.6093 85.6331 53.732 85.3904 53.004C85.1477 52.2573 84.7837 51.688 84.2984 51.296C83.8131 50.904 83.1971 50.708 82.4504 50.708C81.9464 50.708 81.4517 50.792 80.9664 50.96C80.4997 51.128 80.0517 51.3987 79.6224 51.772C79.2117 52.1453 78.8291 52.64 78.4744 53.256V60.452ZM95.5688 63.476C94.5982 63.476 93.8888 63.224 93.4408 62.72C93.0115 62.216 92.7968 61.5067 92.7968 60.592V49.308C92.7968 49.0653 92.8902 48.888 93.0768 48.776C93.2822 48.6453 93.5808 48.58 93.9728 48.58C94.3835 48.58 94.6915 48.6453 94.8968 48.776C95.1022 48.888 95.2048 49.0653 95.2048 49.308V60.312C95.2048 60.6853 95.2888 60.956 95.4568 61.124C95.6248 61.292 95.8302 61.376 96.0728 61.376C96.2782 61.376 96.4462 61.348 96.5768 61.292C96.7262 61.2173 96.8568 61.1333 96.9688 61.04C97.0995 60.9467 97.2395 60.844 97.3888 60.732C97.5008 60.6387 97.6502 60.6293 97.8368 60.704C98.0422 60.7787 98.2008 60.8907 98.3128 61.04C98.4622 61.208 98.5462 61.3853 98.5648 61.572C98.5835 61.7587 98.5368 61.9267 98.4248 62.076C98.2195 62.3747 97.9582 62.6267 97.6408 62.832C97.3422 63.0373 97.0062 63.196 96.6328 63.308C96.2782 63.42 95.9235 63.476 95.5688 63.476ZM94.0288 44.268C93.5062 44.268 93.1048 44.128 92.8248 43.848C92.5635 43.5493 92.4328 43.1107 92.4328 42.532C92.4328 41.9347 92.5635 41.4867 92.8248 41.188C93.1048 40.8893 93.5062 40.74 94.0288 40.74C94.5328 40.74 94.9155 40.8893 95.1768 41.188C95.4382 41.4867 95.5688 41.9347 95.5688 42.532C95.5875 43.1107 95.4568 43.5493 95.1768 43.848C94.9155 44.128 94.5328 44.268 94.0288 44.268Z" fill="white"/>
</svg>
