<svg width="636" height="86" viewBox="0 0 636 86" fill="none" xmlns="http://www.w3.org/2000/svg">
<path d="M632.757 0.000159863V0.0364987H632.767C632.738 12.2671 617.153 22.2448 599.121 22.2448V22.2404H599.067V22.2448L387.274 22.0014C368.319 21.9909 350.983 27.7528 340.324 36.8659L339.042 35.244L335.993 31.398C337.04 30.8028 338.065 30.2093 339.042 29.6096C345.041 25.9303 349.442 22.123 348.617 17.812C347.901 14.0816 343.617 11.7379 339.042 11.2344C330.478 10.2911 320.916 15.8057 331.936 30.8303C322.548 36.0294 315.389 39.1196 310.981 45.8082L310.617 46.3759C305.732 36.8275 305.298 37.1067 300.628 32.3562C311.219 25.2773 311.186 13.8639 305.235 10.4511L305.229 10.4555C303.653 9.55071 301.825 9.24132 300.003 9.43759C292.617 10.2335 285.432 19.4318 296.48 31.9955L288.105 37.0578C287.071 35.4913 285.815 34.0639 284.372 32.7574C276.041 25.2366 261.395 21.9843 245.844 22.0014L35.4938 22.2448V22.2404C17.2599 22.2404 3.26534 12.184 3.23368 0.0428832H3.24357V0L0 0L0 0.0428832H0.00637321C0.0386881 13.3921 15.4781 24.4279 35.4936 24.4279V24.4213L245.844 24.18C262.151 24.1607 277.478 27.8808 284.371 36.8592C284.85 37.4824 285.286 38.1289 285.681 38.8033C285.22 39.1621 284.789 39.5184 284.371 39.8746C271.675 50.6416 278.056 60.1793 284.371 60.3437C288.814 60.4586 293.218 55.9323 290.918 43.9341C290.611 42.316 290.098 40.767 289.387 39.3006L298.24 33.8647C298.793 34.4176 299.379 34.9809 300.002 35.5444L300.632 36.1039C302.4 37.6468 305.659 42.9459 308.82 49.5191C308.82 49.5295 291.674 81.9327 309.475 85.6292C310 85.738 310.5 85.8171 310.981 85.877C331.214 88.455 312.211 49.6258 312.211 49.6088C313.49 47.2486 314.711 45.3832 315.654 44.3075C319.096 40.3848 327.003 36.3388 333.441 32.8216L338.2 38.8143C335.236 41.7317 333.072 44.8004 331.774 47.8225C329.525 53.0661 330.382 56.5768 332.543 58.4741C333.195 59.7717 336.008 60.4632 339.042 60.1302C345.66 59.4024 353.347 53.7918 341.981 38.9848C352.036 29.8656 368.736 24.2336 387.283 24.1802L599.067 24.4215V24.428H599.121V24.4215C618.93 24.4259 635.965 13.4841 635.994 0.0364987H636V0.000159863L632.757 0.000159863ZM286.144 57.3236H286.138C285.552 57.8766 284.954 58.109 284.372 58.1112C283.17 58.1177 282.053 57.1488 281.382 56.0818H281.379C279.323 52.8014 280.538 48.0911 284.372 43.7313C285.109 42.8904 285.942 42.0599 286.872 41.258C289.324 47.5537 288.523 55.0722 286.144 57.3236ZM298.87 30.4399C293.576 24.2125 293.209 19.0497 294.956 15.6479C295.924 13.7527 297.924 12.0944 300.003 11.6652C301.072 11.4459 302.157 11.548 303.144 12.1136V12.1201C307.222 14.4589 307.574 23.4478 300.003 29.5878C299.642 29.8782 299.265 30.1624 298.87 30.4399ZM316.939 79.2523C316.404 82.4429 313.706 84.1952 310.982 83.8131C305.749 83.0787 300.448 74.4631 310.459 53.0661L310.982 54.2549C314.088 61.4789 318.043 72.6599 316.939 79.2523ZM331.847 15.1527C333.341 13.6501 336.287 13.119 339.043 13.4708C344.789 14.2073 349.731 18.8023 339.043 26.4936C337.758 27.418 336.252 28.3804 334.496 29.3896C330.576 23.9476 328.19 18.8364 331.847 15.1527ZM339.043 57.9491C337.457 58.1794 335.929 57.8722 335.1 57.1466C331.458 53.9434 335.148 46.5869 339.043 42.0007C339.327 41.6633 339.611 41.3346 339.9 41.0317C348.418 52.4599 343.485 57.3027 339.043 57.9491Z" fill="#535353" fill-opacity="0.3"/>
</svg>
