<svg width="636" height="86" viewBox="0 0 636 86" fill="none" xmlns="http://www.w3.org/2000/svg">
<path d="M3.24268 85.9998L3.24268 85.9634L3.23279 85.9634C3.26159 73.7328 18.8473 63.7552 36.8787 63.7552L36.8787 63.7596L36.9328 63.7596L36.9328 63.7552L248.726 63.9986C267.681 64.0091 285.017 58.2472 295.676 49.134L296.958 50.756L300.007 54.6019C298.96 55.1971 297.935 55.7907 296.958 56.3903C290.959 60.0697 286.558 63.877 287.383 68.188C288.099 71.9184 292.383 74.2621 296.958 74.7656C305.522 75.7088 315.084 70.1943 304.064 55.1696C313.452 49.9705 320.611 46.8804 325.019 40.1918L325.383 39.6241C330.268 49.1725 330.702 48.8933 335.372 53.6438C324.781 60.7227 324.814 72.1361 330.765 75.5489L330.771 75.5445C332.347 76.4493 334.175 76.7587 335.997 76.5624C343.383 75.7665 350.568 66.5682 339.52 54.0044L347.895 48.9422C348.929 50.5086 350.185 51.9361 351.628 53.2426C359.959 60.7634 374.605 64.0156 390.156 63.9986L600.506 63.7552L600.506 63.7596C618.74 63.7596 632.735 73.816 632.766 85.9571L632.756 85.9571L632.756 86L636 86L636 85.9571L635.994 85.9571C635.961 72.6079 620.522 61.5721 600.506 61.5721L600.506 61.5787L390.156 61.8199C373.849 61.8392 358.522 58.1192 351.629 49.1408C351.15 48.5176 350.714 47.8711 350.319 47.1967C350.78 46.8378 351.211 46.4816 351.629 46.1254C364.325 35.3584 357.944 25.8206 351.629 25.6563C347.186 25.5414 342.782 30.0676 345.082 42.0658C345.389 43.684 345.902 45.2329 346.613 46.6994L337.76 52.1353C337.207 51.5823 336.621 51.019 335.998 50.4556L335.368 49.8961C333.6 48.3532 330.341 43.0541 327.18 36.4809C327.18 36.4704 344.326 4.06727 326.525 0.370774C326 0.261914 325.5 0.182847 325.019 0.122933C304.786 -2.45501 323.789 36.3742 323.789 36.3912C322.51 38.7514 321.289 40.6168 320.346 41.6924C316.904 45.6152 308.997 49.6612 302.559 53.1784L297.8 47.1857C300.764 44.2682 302.928 41.1995 304.226 38.1775C306.475 32.9338 305.618 29.4232 303.457 27.5259C302.805 26.2282 299.992 25.5368 296.958 25.8697C290.34 26.5975 282.653 32.2082 294.019 47.0151C283.964 56.1343 267.264 61.7664 248.717 61.8198L36.9335 61.5784L36.9335 61.5719L36.8793 61.5719L36.8793 61.5784C17.0701 61.574 0.0352074 72.5159 0.00640869 85.9634L3.19085e-09 85.9634L0 85.9998L3.24268 85.9998ZM349.856 28.6764L349.862 28.6764C350.448 28.1234 351.046 27.8909 351.628 27.8888C352.83 27.8823 353.947 28.8512 354.618 29.9182L354.621 29.9182C356.677 33.1986 355.462 37.9089 351.628 42.2687C350.891 43.1096 350.058 43.94 349.128 44.742C346.676 38.4463 347.477 30.9277 349.856 28.6764ZM337.13 55.5601C342.424 61.7875 342.791 66.9503 341.044 70.3521C340.076 72.2473 338.076 73.9055 335.997 74.3348C334.928 74.5541 333.843 74.452 332.856 73.8864L332.856 73.8798C328.778 71.5411 328.426 62.5522 335.997 56.4121C336.358 56.1217 336.735 55.8375 337.13 55.5601ZM319.061 6.74768C319.596 3.55702 322.294 1.80479 325.018 2.18686C330.252 2.92122 335.552 11.5369 325.541 32.9339L325.018 31.7451C321.912 24.521 317.957 13.34 319.061 6.74768ZM304.153 70.8473C302.659 72.3499 299.713 72.8809 296.957 72.5291C291.211 71.7927 286.269 67.1976 296.957 59.5064C298.242 58.582 299.748 57.6196 301.504 56.6104C305.424 62.0524 307.81 67.1636 304.153 70.8473ZM296.957 28.0509C298.543 27.8205 300.071 28.1278 300.9 28.8533C304.542 32.0566 300.852 39.4131 296.957 43.9993C296.673 44.3367 296.389 44.6654 296.1 44.9682C287.582 33.54 292.515 28.6973 296.957 28.0509Z" fill="#535353" fill-opacity="0.3"/>
</svg>
